<svg width="414" height="896" viewBox="0 0 414 896" fill="none" xmlns="http://www.w3.org/2000/svg">
<path fill-rule="evenodd" clip-rule="evenodd" d="M0 709.918C14.0162 702.273 28.2392 694.825 42.458 687.381C58.3255 679.073 74.1877 670.767 89.7514 662.192C154.364 626.593 217.085 583.097 245.029 524.021C280.772 448.483 252.863 363.768 219.833 287.424C217.433 281.876 215.003 276.312 212.566 270.732C181.476 199.539 149.312 125.888 163.722 51.7843C167.18 33.9327 173.269 16.6685 181.406 0L414 0V896H0L0 709.918Z" fill="#FBFAFA"/>
<path fill-rule="evenodd" clip-rule="evenodd" d="M414 462.929V896H0V786.61C20.0974 780.551 40.9901 773.218 67.9907 763.569C158.267 731.308 265.259 670.502 319.92 594.095C330.045 579.942 339.989 565.588 349.944 551.218C370.67 521.3 391.444 491.313 414 462.929Z" fill="#FFD951"/>
</svg>
