<svg width="24" height="24" viewBox="0 0 24 24" fill="none" xmlns="http://www.w3.org/2000/svg">
<path d="M15.8706 13.6195C15.8706 15.7539 14.1344 17.4902 12 17.4902C9.86565 17.4902 8.13004 15.7539 8.13004 13.6195C8.13004 11.4852 9.86565 9.7489 12 9.7489C14.1344 9.7489 15.8706 11.4858 15.8706 13.6195ZM24 8.12343V19.117C24 20.5825 22.8117 21.7708 21.3462 21.7708H2.65384C1.18826 21.7708 0 20.5825 0 19.117V8.12343C0 6.65784 1.18826 5.46959 2.65384 5.46959H5.91806V4.55136C5.91806 3.26889 6.95704 2.22925 8.24017 2.22925H15.7598C17.043 2.22925 18.0819 3.26889 18.0819 4.55136V5.46892H21.3462C22.8117 5.46959 24 6.65784 24 8.12343ZM17.861 13.6195C17.861 10.3878 15.2317 7.75852 12 7.75852C8.76895 7.75852 6.13966 10.3878 6.13966 13.6195C6.13966 16.8512 8.76895 19.4805 12 19.4805C15.2317 19.4805 17.861 16.8512 17.861 13.6195Z" fill="white"/>
</svg>
