<svg width="35" height="36" viewBox="0 0 35 36" fill="none" xmlns="http://www.w3.org/2000/svg">
<path d="M23.1318 20.8389C21.438 19.8931 19.5211 20.1829 18.1263 21.5715C16.2002 23.4891 12.5399 23.883 10.5295 23.9472C9.86144 23.9685 9.39109 24.6293 9.57287 25.2885C10.2318 27.6789 12.9897 30.0988 16.9862 30.0988C19.0356 30.0988 20.9767 29.6403 22.4519 28.8078C24.0649 27.8976 25.0172 26.6145 25.1333 25.1949C25.3428 22.6352 24.1605 21.4132 23.1318 20.8389Z" fill="#FFD951"/>
<path d="M28.4539 15.6613C29.8396 13.9622 30.6167 11.7975 30.6167 9.5625C30.6167 4.2897 26.4686 0 21.37 0C16.2714 0 12.1234 4.2897 12.1234 9.5625C12.1234 12.6049 13.5348 15.4256 15.8786 17.2008C12.6938 20.1459 7.58499 19.6035 5.07661 16.1119C4.71168 15.6039 3.99558 15.5366 3.54688 15.9686C1.25967 18.171 0 20.8901 0 23.625C0 30.4486 7.25136 36 16.1645 36C25.0399 36 32.2605 30.4486 32.2605 23.625C32.2605 20.6689 30.9178 17.8775 28.4539 15.6613ZM23.0872 7.20844C23.1484 6.60248 23.6929 6.15888 24.3105 6.2782C24.8651 6.3964 25.2238 6.93443 25.1173 7.51852C25.0009 8.0917 24.4748 8.4555 23.9091 8.3468C23.3603 8.2293 23.0368 7.71701 23.0872 7.20844ZM27.1812 25.3714C26.9905 27.7027 25.4555 29.5201 23.442 30.6562C21.6687 31.657 19.376 32.2081 16.9864 32.2081C12.0956 32.2081 8.51377 29.1927 7.59595 25.863C7.05019 23.8838 8.46013 21.9028 10.4659 21.8388C13.3386 21.7471 15.6676 21.0811 16.696 20.0573C18.7097 18.0525 21.6013 17.5829 24.1138 18.9859C26.1831 20.1413 27.4287 22.3468 27.1812 25.3714Z" fill="#FFD951"/>
<path d="M34.1127 7.88189L32.5198 7.65689C32.8703 9.85198 32.6024 12.0234 31.8145 13.9838C33.8129 13.0608 35 11.1622 35 8.92673C35.0001 8.39974 34.6212 7.95368 34.1127 7.88189Z" fill="#FFD951"/>
</svg>
