<svg width="26" height="26" viewBox="0 0 26 26" fill="none" xmlns="http://www.w3.org/2000/svg">
<path d="M17.29 13.0008L25.3334 4.95737C26.2221 4.06865 26.2221 2.62782 25.3334 1.7405L24.2611 0.668204C23.3721 -0.22079 21.9313 -0.22079 21.044 0.668204L13.0008 8.71136L4.95737 0.666537C4.06865 -0.222179 2.62782 -0.222179 1.7405 0.666537L0.666537 1.73883C-0.222179 2.62782 -0.222179 4.06865 0.666537 4.95598L8.71136 13.0008L0.668204 21.044C-0.22079 21.933 -0.22079 23.3738 0.668204 24.2611L1.7405 25.3334C2.62921 26.2221 4.07004 26.2221 4.95737 25.3334L13.0008 17.29L21.044 25.3334C21.933 26.2221 23.3738 26.2221 24.2611 25.3334L25.3334 24.2611C26.2221 23.3721 26.2221 21.9313 25.3334 21.044L17.29 13.0008Z" fill="white"/>
</svg>
