<svg width="22" height="22" viewBox="0 0 22 22" fill="none" xmlns="http://www.w3.org/2000/svg">
<g clip-path="url(#clip0)">
<path d="M1.37498 1.49694C-0.353854 3.29269 -2.0802e-05 5.20027 -2.0802e-05 10.9954C-2.0802e-05 15.8079 -0.839687 20.6324 3.55481 21.7681C4.92706 22.121 17.0857 22.121 18.4561 21.7663C20.2858 21.2942 21.7745 19.8101 21.978 17.2224C22.0064 16.8612 22.0064 5.13611 21.9771 4.76761C21.7607 2.01119 20.064 0.422606 17.8282 0.100856C17.3158 0.0266055 17.2131 0.00460552 14.5841 2.21804e-05C5.2589 0.00460552 3.21473 -0.410645 1.37498 1.49694Z" fill="url(#paint0_linear)"/>
<path d="M10.9981 2.87747C7.66972 2.87747 4.50906 2.58139 3.30181 5.67972C2.80314 6.95938 2.87556 8.6213 2.87556 11.001C2.87556 13.0891 2.80864 15.0517 3.30181 16.3213C4.50631 19.4215 7.69264 19.1245 10.9963 19.1245C14.1836 19.1245 17.4698 19.4563 18.6917 16.3213C19.1913 15.0288 19.118 13.3916 19.118 11.001C19.118 7.82747 19.2931 5.77872 17.754 4.24055C16.1956 2.68222 14.0882 2.87747 10.9945 2.87747H10.9981ZM10.2703 4.34139C17.2131 4.33038 18.0968 3.55855 17.6091 14.2808C17.4359 18.0731 14.5484 17.6569 10.9991 17.6569C4.52739 17.6569 4.34131 17.4717 4.34131 10.9973C4.34131 4.44772 4.85464 4.34505 10.2703 4.33955V4.34139ZM15.334 5.6898C14.7959 5.6898 14.3596 6.12613 14.3596 6.66422C14.3596 7.2023 14.7959 7.63864 15.334 7.63864C15.8721 7.63864 16.3084 7.2023 16.3084 6.66422C16.3084 6.12613 15.8721 5.6898 15.334 5.6898ZM10.9981 6.82922C8.69456 6.82922 6.82731 8.69739 6.82731 11.001C6.82731 13.3046 8.69456 15.1718 10.9981 15.1718C13.3017 15.1718 15.1681 13.3046 15.1681 11.001C15.1681 8.69739 13.3017 6.82922 10.9981 6.82922ZM10.9981 8.29313C14.5777 8.29313 14.5823 13.7088 10.9981 13.7088C7.41947 13.7088 7.41397 8.29313 10.9981 8.29313Z" fill="white"/>
</g>
<defs>
<linearGradient id="paint0_linear" x1="1.41716" y1="20.5949" x2="21.8638" y2="2.8985" gradientUnits="userSpaceOnUse">
<stop stop-color="#FFDD55"/>
<stop offset="0.5" stop-color="#FF543E"/>
<stop offset="1" stop-color="#C837AB"/>
</linearGradient>
<clipPath id="clip0">
<rect width="22" height="22" fill="white"/>
</clipPath>
</defs>
</svg>
