<svg width="124" height="23" viewBox="0 0 124 23" fill="none" xmlns="http://www.w3.org/2000/svg">
<path d="M22.89 4.34182C22.5267 3.71252 21.637 3.95362 20.9631 3.79524C20.1105 3.5955 19.5855 2.71429 18.9989 2.02437C17.643 0.426463 15.4604 -0.375779 13.5085 0.171271C11.5566 0.71832 9.98349 2.67952 9.92897 4.83669C9.88573 6.60709 10.7797 8.24917 11.8132 9.63043L4.27869 11.7016C3.72316 11.8543 3.1413 12.0076 2.58248 11.8694C1.74118 11.6612 1.11421 10.7283 1.19834 9.80855C0.438827 11.993 -0.332436 14.332 0.149779 16.6044C0.654085 18.9815 2.50446 20.851 4.61897 21.7586C6.73348 22.6661 9.08392 22.7295 11.354 22.5016C12.8871 22.3479 14.4273 22.0603 15.8331 21.3892C17.2388 20.718 18.512 19.6315 19.2255 18.1727C19.9389 16.7139 20.0292 14.8626 19.2532 13.44C18.7635 12.541 17.9274 11.7129 18.0364 10.6794C18.1064 10.0139 18.5651 9.47722 19.0286 9.02698C20.0508 8.03346 21.1966 7.39429 22.3538 6.63012C22.1658 6.52766 21.7071 6.46703 21.7856 6.18787C21.8485 5.96369 22.2969 5.85889 22.4576 5.73999C22.8543 5.44813 23.1777 4.84093 22.89 4.34182Z" fill="#2CAEF8"/>
<path d="M34.22 18.2C35.3 18.2 36.18 17.64 36.68 16.72L36.86 18H40.06V3.68H36.66V8.82C36.16 8.52 35.46 8.34 34.84 8.34C32.3 8.34 30.54 10.36 30.54 13.48C30.54 16.32 32.02 18.2 34.22 18.2ZM35.48 15.26C34.58 15.26 34.02 14.46 34.02 13.26C34.02 11.98 34.64 11.16 35.62 11.16C35.98 11.16 36.38 11.28 36.66 11.46V14.68C36.34 15.04 35.92 15.26 35.48 15.26ZM44.8775 18.24C45.9375 18.24 46.8775 17.7 47.4575 16.78L47.6375 18H50.8575V8.52H47.4575V14.62C47.1775 15.04 46.7575 15.28 46.2575 15.28C45.6175 15.28 45.1575 14.82 45.1575 14.1V8.52H41.7575V14.84C41.7575 16.94 42.9975 18.24 44.8775 18.24ZM57.3383 18.22C58.2383 18.22 59.2383 17.94 60.0983 17.5V14.42C59.3983 14.92 58.5783 15.24 57.7983 15.24C56.5383 15.24 55.7583 14.52 55.7583 13.26C55.7583 12.02 56.5183 11.32 57.7183 11.32C58.4983 11.32 59.2783 11.58 60.0183 12V8.92C59.1783 8.54 58.2183 8.34 57.3183 8.34C54.2183 8.34 52.2783 10.26 52.2783 13.34C52.2783 16.36 54.2383 18.22 57.3383 18.22ZM61.7003 18H65.1003V13.92L67.7003 18H71.6203L68.3203 12.96L71.4803 8.52H67.7403L65.1003 12.4V3.68H61.7003V18ZM74.9248 18.22C76.0248 18.22 76.9048 17.72 77.4248 16.82L77.6248 18H80.8048V11.56C80.8048 9.44 79.1648 8.2 76.3648 8.2C74.9848 8.2 73.7048 8.5 72.5248 8.9V11.66C73.4848 11.12 74.5448 10.8 75.6248 10.8C76.8048 10.8 77.4048 11.12 77.4048 11.72V11.96L75.7448 12.24C73.3248 12.66 72.0248 13.58 72.0248 15.48C72.0248 17.08 73.2048 18.22 74.9248 18.22ZM76.3048 15.74C75.7848 15.74 75.4248 15.44 75.4248 14.94C75.4248 14.38 75.8048 14.04 76.3848 13.94L77.4048 13.78V15.06C77.2248 15.48 76.7848 15.74 76.3048 15.74ZM84.3877 18H88.2677L89.0877 14.9L89.6877 12.5L90.2877 14.9L91.1077 18H94.9677L97.9677 8.52H94.8877L93.7477 12.42L93.1477 14.74L92.5477 12.42L91.4677 8.52H88.2077L87.1677 12.42L86.6277 14.78L86.0877 12.42L85.0477 8.52H81.5677L84.3877 18ZM101.331 18.22C102.431 18.22 103.311 17.72 103.831 16.82L104.031 18H107.211V11.56C107.211 9.44 105.571 8.2 102.771 8.2C101.391 8.2 100.111 8.5 98.9311 8.9V11.66C99.8911 11.12 100.951 10.8 102.031 10.8C103.211 10.8 103.811 11.12 103.811 11.72V11.96L102.151 12.24C99.7311 12.66 98.4311 13.58 98.4311 15.48C98.4311 17.08 99.6111 18.22 101.331 18.22ZM102.711 15.74C102.191 15.74 101.831 15.44 101.831 14.94C101.831 14.38 102.211 14.04 102.791 13.94L103.811 13.78V15.06C103.631 15.48 103.191 15.74 102.711 15.74ZM108.394 22.24C112.254 22.24 114.254 21.02 115.554 16.94L118.294 8.52H115.034L113.934 12.42L113.314 14.98L112.714 12.42L111.614 8.52H107.974L111.094 17.82L111.594 18.1C111.014 19 110.194 19.26 108.394 19.26H108.234V22.24H108.394Z" fill="#0D0C0C"/>
</svg>
