<svg width="32" height="32" viewBox="0 0 32 32" fill="none" xmlns="http://www.w3.org/2000/svg">
<path d="M16 0C7.17725 0 0 7.17725 0 16C0 24.8228 7.17725 32 16 32C24.8228 32 32 24.8228 32 16C32 7.17725 24.8228 0 16 0Z" fill="#FFD951"/>
<path d="M17.3333 24C17.3333 24.7363 16.7363 25.3332 16 25.3332C15.2637 25.3332 14.6667 24.7363 14.6667 24C14.6667 23.2637 15.2637 22.6667 16 22.6667C16.7363 22.6667 17.3333 23.2637 17.3333 24Z" fill="#ECEFF1"/>
<path d="M18.1106 16.856C17.6387 17.0732 17.3333 17.5493 17.3333 18.0681V18.6667C17.3333 19.4026 16.7373 20 16 20C15.2627 20 14.6667 19.4026 14.6667 18.6667V18.0681C14.6667 16.512 15.5813 15.0854 16.9934 14.4333C18.3521 13.8081 19.3333 12.1479 19.3333 11.3333C19.3333 9.49609 17.8386 8 16 8C14.1614 8 12.6667 9.49609 12.6667 11.3333C12.6667 12.0693 12.0706 12.6667 11.3333 12.6667C10.5959 12.6667 10 12.0693 10 11.3333C10 8.02539 12.6919 5.33325 16 5.33325C19.3081 5.33325 22 8.02539 22 11.3333C22 13.1348 20.4373 15.7827 18.1106 16.856Z" fill="#FAFAFA"/>
</svg>
