<?xml version="1.0" encoding="utf-8"?>
<svg xmlns="http://www.w3.org/2000/svg" xmlns:xlink="http://www.w3.org/1999/xlink" style="margin: auto; background: rgba(0, 0, 0, 0) none repeat scroll 0% 0%; display: block; shape-rendering: auto;" width="317px" height="317px" viewBox="0 0 100 100" preserveAspectRatio="xMidYMid">
<g transform="rotate(0 50 50)">
  <rect x="49" y="27.5" rx="1" ry="1.44" width="2" height="9" fill="#2caef8">
    <animate attributeName="opacity" values="1;0" keyTimes="0;1" dur="0.3921568627450981s" begin="-0.3485838779956427s" repeatCount="indefinite"></animate>
  </rect>
</g><g transform="rotate(40 50 50)">
  <rect x="49" y="27.5" rx="1" ry="1.44" width="2" height="9" fill="#2caef8">
    <animate attributeName="opacity" values="1;0" keyTimes="0;1" dur="0.3921568627450981s" begin="-0.30501089324618735s" repeatCount="indefinite"></animate>
  </rect>
</g><g transform="rotate(80 50 50)">
  <rect x="49" y="27.5" rx="1" ry="1.44" width="2" height="9" fill="#2caef8">
    <animate attributeName="opacity" values="1;0" keyTimes="0;1" dur="0.3921568627450981s" begin="-0.26143790849673204s" repeatCount="indefinite"></animate>
  </rect>
</g><g transform="rotate(120 50 50)">
  <rect x="49" y="27.5" rx="1" ry="1.44" width="2" height="9" fill="#2caef8">
    <animate attributeName="opacity" values="1;0" keyTimes="0;1" dur="0.3921568627450981s" begin="-0.2178649237472767s" repeatCount="indefinite"></animate>
  </rect>
</g><g transform="rotate(160 50 50)">
  <rect x="49" y="27.5" rx="1" ry="1.44" width="2" height="9" fill="#2caef8">
    <animate attributeName="opacity" values="1;0" keyTimes="0;1" dur="0.3921568627450981s" begin="-0.17429193899782136s" repeatCount="indefinite"></animate>
  </rect>
</g><g transform="rotate(200 50 50)">
  <rect x="49" y="27.5" rx="1" ry="1.44" width="2" height="9" fill="#2caef8">
    <animate attributeName="opacity" values="1;0" keyTimes="0;1" dur="0.3921568627450981s" begin="-0.13071895424836602s" repeatCount="indefinite"></animate>
  </rect>
</g><g transform="rotate(240 50 50)">
  <rect x="49" y="27.5" rx="1" ry="1.44" width="2" height="9" fill="#2caef8">
    <animate attributeName="opacity" values="1;0" keyTimes="0;1" dur="0.3921568627450981s" begin="-0.08714596949891068s" repeatCount="indefinite"></animate>
  </rect>
</g><g transform="rotate(280 50 50)">
  <rect x="49" y="27.5" rx="1" ry="1.44" width="2" height="9" fill="#2caef8">
    <animate attributeName="opacity" values="1;0" keyTimes="0;1" dur="0.3921568627450981s" begin="-0.04357298474945534s" repeatCount="indefinite"></animate>
  </rect>
</g><g transform="rotate(320 50 50)">
  <rect x="49" y="27.5" rx="1" ry="1.44" width="2" height="9" fill="#2caef8">
    <animate attributeName="opacity" values="1;0" keyTimes="0;1" dur="0.3921568627450981s" begin="0s" repeatCount="indefinite"></animate>
  </rect>
</g>
<!-- [ldio] generated by https://loading.io/ --></svg>