<svg width="22" height="22" viewBox="0 0 22 22" fill="none" xmlns="http://www.w3.org/2000/svg">
<path d="M7.82458 11.404C6.08005 11.404 4.67067 12.8133 4.69645 14.5407C4.71364 15.6493 5.3238 16.6118 6.22184 17.1489C5.91677 16.6805 5.7363 16.1262 5.7277 15.529C5.70192 13.8016 7.1113 12.3922 8.85583 12.3922C9.19958 12.3922 9.53044 12.4481 9.83981 12.5469V9.08794C9.51755 9.04067 9.18669 9.01489 8.85583 9.01489C8.83864 9.01489 8.82575 9.01489 8.80856 9.01489V11.5586C8.49919 11.4598 8.16833 11.404 7.82458 11.404Z" fill="#F00044"/>
<path d="M15.3656 1.03125H15.3398H14.446C14.7039 2.32461 15.43 3.45039 16.4441 4.21523C15.7781 3.33437 15.3742 2.23438 15.3656 1.03125Z" fill="#F00044"/>
<path d="M20.625 6.29497C20.2855 6.29497 19.959 6.2606 19.6367 6.20044V8.67974C18.468 8.67974 17.3336 8.452 16.268 7.99653C15.5805 7.70435 14.9402 7.33052 14.3516 6.87935L14.3687 14.5235C14.3601 16.2422 13.6812 17.8536 12.4523 19.0696C11.4512 20.0579 10.1836 20.6895 8.80858 20.8915C8.48632 20.9387 8.15546 20.9645 7.8246 20.9645C6.35507 20.9645 4.95428 20.4875 3.81561 19.6067C3.94452 19.7614 4.08202 19.9118 4.23241 20.0579C5.46991 21.2782 7.11132 21.9528 8.86014 21.9528C9.191 21.9528 9.52186 21.927 9.84413 21.8797C11.2191 21.6778 12.4867 21.0461 13.4879 20.0579C14.7168 18.8418 15.3957 17.2305 15.4043 15.5118L15.3398 7.86763C15.9242 8.3188 16.5644 8.69692 17.2562 8.98481C18.3262 9.43599 19.4605 9.66802 20.625 9.66802" fill="#F00044"/>
<path d="M4.21954 10.9184C5.44415 9.70239 7.07266 9.02778 8.8086 9.01489V8.09966C8.48634 8.05239 8.15548 8.02661 7.82462 8.02661C6.07149 8.02661 4.42579 8.70122 3.18829 9.93013C1.97227 11.1375 1.27618 12.7875 1.28048 14.502C1.28048 16.2293 1.96368 17.8493 3.19688 19.0739C3.39454 19.2672 3.59649 19.4477 3.81134 19.611C2.84024 18.4551 2.31173 17.0114 2.30743 15.4903C2.31173 13.7758 3.00352 12.1258 4.21954 10.9184Z" fill="#08FFF9"/>
<path d="M19.6367 6.20037V5.28083H19.6281C18.4336 5.28083 17.3336 4.88552 16.4484 4.21521C17.2176 5.22927 18.3433 5.95115 19.6367 6.20037Z" fill="#08FFF9"/>
<path d="M8.67967 18.5711C9.08788 18.5926 9.47889 18.5367 9.83983 18.4207C11.0859 18.0125 11.984 16.8523 11.984 15.4859L11.9883 10.3727V1.03125H14.4461C14.3816 0.708984 14.3473 0.382422 14.343 0.0429688H10.957V9.38008L10.9527 14.4934C10.9527 15.8598 10.0547 17.0199 8.80858 17.4281C8.44764 17.5484 8.05663 17.6043 7.64842 17.5785C7.1285 17.5484 6.64296 17.3937 6.22186 17.1445C6.75038 17.9609 7.65272 18.5152 8.67967 18.5711Z" fill="#08FFF9"/>
<path d="M8.8086 20.8914C10.1836 20.6895 11.4512 20.0578 12.4523 19.0695C13.6813 17.8535 14.3602 16.2422 14.3688 14.5234L14.3516 6.8793C14.9359 7.33047 15.5762 7.70859 16.268 7.99649C17.3379 8.44766 18.4723 8.67969 19.6367 8.67969V6.20039C18.3434 5.95117 17.2176 5.2293 16.4484 4.21523C15.4344 3.45039 14.7039 2.32461 14.4504 1.03125H11.9883V10.3684L11.984 15.4816C11.984 16.848 11.0859 18.0082 9.83985 18.4164C9.47891 18.5367 9.0879 18.5926 8.67969 18.5668C7.64844 18.5109 6.7504 17.9566 6.22188 17.1445C5.32384 16.6117 4.71368 15.6449 4.69649 14.5363C4.67071 12.809 6.08009 11.3996 7.82462 11.3996C8.16837 11.3996 8.49923 11.4555 8.8086 11.5543V9.01055C7.07266 9.02344 5.44415 9.69805 4.21954 10.9141C3.00352 12.1215 2.30743 13.7715 2.31173 15.4816C2.31173 17.0027 2.84024 18.4465 3.81563 19.6023C4.9586 20.4832 6.35508 20.9602 7.82462 20.9602C8.15548 20.9645 8.48633 20.9387 8.8086 20.8914Z" fill="black"/>
</svg>
